<?xml version="1.0" standalone="no"?>
<!DOCTYPE svg PUBLIC "-//W3C//DTD SVG 20010904//EN"
 "http://www.w3.org/TR/2001/REC-SVG-20010904/DTD/svg10.dtd">
<svg version="1.0" xmlns="http://www.w3.org/2000/svg"
 width="1134.000000pt" height="293.000000pt" viewBox="0 0 1134.000000 293.000000"
 preserveAspectRatio="xMidYMid meet">

<g transform="translate(0.000000,293.000000) scale(0.100000,-0.100000)"
fill="#e31e24" stroke="none">
<path d="M7260 2895 c-148 -153 -537 -320 -873 -376 -61 -10 -76 -16 -73 -28
5 -17 106 -544 106 -552 0 -22 406 59 571 114 l129 44 0 -1019 0 -1018 390 0
390 0 0 1435 0 1435 -303 0 -303 0 -34 -35z"/>
<path d="M2870 2729 c-201 -54 -366 -99 -367 -99 -2 0 -3 -99 -3 -220 l0 -220
-115 0 -115 0 0 -285 0 -285 115 0 115 0 0 -482 c0 -501 6 -596 46 -728 61
-205 200 -332 406 -374 176 -36 503 -8 617 54 21 10 21 17 21 320 0 171 -1
310 -2 310 -2 0 -25 -7 -52 -15 -68 -21 -172 -19 -216 3 -70 34 -70 37 -70
500 l0 412 170 0 170 0 0 285 0 285 -170 0 -170 0 0 320 c0 176 -3 320 -7 319
-5 0 -172 -45 -373 -100z"/>
<path d="M835 2225 c-223 -42 -395 -133 -540 -287 -101 -106 -172 -226 -218
-365 -52 -155 -68 -261 -68 -443 0 -226 37 -402 119 -565 168 -335 458 -517
888 -555 205 -19 535 11 764 70 87 22 220 68 233 79 7 7 -182 544 -197 558 -3
3 -33 -6 -68 -20 -159 -63 -344 -97 -528 -97 -195 0 -321 40 -401 127 -38 41
-67 89 -58 97 2 2 287 39 632 82 346 44 634 82 640 86 17 10 21 258 7 379 -51
443 -287 733 -680 836 -80 21 -123 26 -270 29 -126 2 -198 -1 -255 -11z m324
-544 c51 -26 106 -91 126 -150 21 -61 32 -171 17 -171 -13 0 -492 -56 -561
-66 l-44 -6 6 69 c22 229 156 361 354 348 35 -2 80 -13 102 -24z"/>
<path d="M4663 2226 c-431 -82 -705 -371 -800 -842 -24 -122 -24 -394 1 -518
107 -544 471 -857 1001 -859 151 -1 240 12 368 53 146 47 246 109 362 225 151
151 236 314 286 546 33 151 33 437 0 588 -89 416 -346 696 -726 793 -104 26
-384 34 -492 14z m303 -595 c82 -37 140 -141 164 -291 5 -36 10 -131 10 -211
0 -348 -83 -509 -263 -509 -76 0 -114 17 -163 73 -72 82 -103 216 -104 443 0
214 38 373 108 448 60 63 167 84 248 47z"/>
<path d="M9675 1350 c-114 -10 -194 -24 -317 -57 l-98 -26 0 -603 0 -604 225
0 225 0 0 465 0 464 36 7 c46 8 166 -1 193 -16 18 -9 21 -6 30 27 31 122 72
325 66 331 -18 18 -207 24 -360 12z"/>
<path d="M10194 1316 c-3 -8 -4 -216 -2 -463 5 -478 7 -504 59 -604 31 -61
102 -127 173 -160 98 -46 190 -61 366 -61 177 0 324 19 453 59 l87 26 0 609 0
608 -225 0 -225 0 0 -464 0 -463 -31 -7 c-80 -16 -153 2 -183 45 -14 21 -16
72 -16 456 l0 433 -225 0 c-187 0 -227 -2 -231 -14z"/>
<path d="M8685 546 c-105 -48 -161 -147 -153 -265 17 -232 293 -336 458 -171
58 58 75 103 75 195 0 88 -12 118 -68 181 -72 82 -209 109 -312 60z"/>
</g>
</svg>
