<?xml version="1.0" encoding="utf-8"?><!DOCTYPE svg PUBLIC "-//W3C//DTD SVG 1.1//EN" "http://www.w3.org/Graphics/SVG/1.1/DTD/svg11.dtd"><svg viewBox="0 0 50 50" xmlns="http://www.w3.org/2000/svg" xmlns:xlink="http://www.w3.org/1999/xlink"><style>:root>svg{display:none}:root>svg:target{display:block}</style><svg viewBox="-0.187 207.428 20 20" id="arrow"><path d="M19.647 217.026l-5.457-5.457a.561.561 0 00-.399-.173h-.01a.568.568 0 00-.403.971.012.012 0 00.005.005l4.488 4.487H.387a.57.57 0 00-.012 1.138h17.497l-4.486 4.486a.565.565 0 00.391.975.594.594 0 00.412-.17l5.458-5.458a.57.57 0 000-.804z"/></svg><svg viewBox="0 0 24 24" id="arrow-left"><path fill="none" d="M0 0h24v24H0z"/><path d="M8.4 19.999l1.691-1.611-5.496-5.246H24v-2.284H4.596l5.508-5.246L8.4 3.999 0 12l8.4 7.999z"/></svg><svg viewBox="0 0 24 24" id="arrow-right"><path d="M15 5l-1.41 1.41L18.17 11H2v2h16.17l-4.59 4.59L15 19l7-7-7-7z"/></svg><svg viewBox="-293.64 422.945 9 6" id="arrow-small"><path fill="#e31e24" d="M-284.64 424.445l-1.501-1.5-3 2.998-2.998-2.998-1.501 1.5 4.497 4.5.002-.002.004.002z"/></svg><svg viewBox="-300 391.5 6 9" id="arrow-small-left"><path d="M-295.5 400.501L-294 399l-2.998-3 2.998-2.998-1.5-1.501-4.499 4.497.002.002-.002.004 4.499 4.497z"/></svg><svg viewBox="-300 391.5 6 9" id="arrow-small-right"><path d="M-298.499 391.5l-1.5 1.501 2.998 3-2.998 2.998 1.5 1.501 4.5-4.497-.002-.002.002-.004-4.5-4.497z"/></svg><svg viewBox="0 0 24 24" id="close" xmlns="http://www.w3.org/2000/svg"><path fill="#999" d="M24 1.416L22.586 0 12 10.586 1.415 0 0 1.415 10.585 12 0 22.586 1.415 24 12 13.415 22.586 24 24 22.586 13.415 12z"/></svg><svg viewBox="0 772 20 20" id="icon-basket" xmlns="http://www.w3.org/2000/svg"><path d="M7.324 792c.934 0 1.69-.762 1.69-1.702s-.757-1.701-1.69-1.701c-.933 0-1.69.761-1.69 1.701S6.391 792 7.324 792zm7.888 0c.933 0 1.69-.762 1.69-1.702s-.757-1.701-1.69-1.701c-.934 0-1.69.761-1.69 1.701s.756 1.702 1.69 1.702zm-12.46-17.299H0V773h3.38c.373 0 .702.246.81.606l2.898 9.727c.179.6.727 1.01 1.349 1.01h6.764a1.41 1.41 0 001.354-1.028l1.479-5.211h-7.331v-1.701h8.451c.265 0 .515.125.675.338.16.213.211.49.138.746l-1.786 6.295a3.101 3.101 0 01-2.979 2.262H8.438a3.1 3.1 0 01-2.968-2.223l-2.718-9.12z"/></svg><svg viewBox="6.12 132.386 20 20" id="icon-cart"><path class="aiicon-cart" d="M26.067 138.27a.648.648 0 00.054-.259.623.623 0 00-.625-.625H10.832l-.474-1.899-.029-.083a.63.63 0 00-.615-.518H6.745c-.347 0-.625.278-.625.625s.278.625.625.625h2.48l3.13 12.524c.005.029.015.054.024.083a.63.63 0 00.615.518H23.15c.347 0 .63-.278.63-.625a.63.63 0 00-.625-.625h-9.673l-.469-1.875H23.62a.624.624 0 00.625-.576.641.641 0 00.039-.117l1.783-7.173zm-2.93 6.616h-1.709l.298-2.5h2.031l-.62 2.5zm-7.466-.005l-.317-2.495h1.938v2.5h-1.621v-.005zm9.014-6.245l-.62 2.5h-2.188l.298-2.5h2.51zm-4.068 2.5h-2.075v-2.422c0-.029 0-.054-.005-.078h2.378l-.298 2.5zm-3.325-2.422v2.422h-2.1l-.322-2.5h2.427c0 .024-.005.049-.005.078zm1.25 3.672h1.924l-.288 2.402c-.005.034-.005.068-.005.098h-1.631v-2.5zm-4.917-3.75a.498.498 0 000 .122l.308 2.378h-2.168l-.62-2.5h2.48zm-1.548 3.75h2.017l.317 2.5h-1.709l-.625-2.5z"/><path d="M14.089 149.886a1.25 1.25 0 100 2.5 1.25 1.25 0 000-2.5zM21.745 149.886a1.25 1.25 0 100 2.5 1.25 1.25 0 000-2.5z"/><g><path class="aiicon-check" d="M17.957 137.98c-.153-.202-.308-.408-.469-.624a89.456 89.456 0 00-1.158-1.525 1.35 1.35 0 00-1.896-.238 1.354 1.354 0 00-.239 1.897c.43.552.786 1.027 1.129 1.486.495.661.962 1.285 1.518 1.958a1.35 1.35 0 001.025.491h.017c.392 0 .764-.169 1.021-.464 1.054-1.213 2.08-2.251 3.158-3.176 0 0 1.041-.892 2.335-1.586a1.352 1.352 0 10-1.277-2.383c-.788.423-.71.401-1.423.855 0 .001-2.424 1.918-3.741 3.309z"/><path fill="#FFF" d="M23.759 133.656a1.351 1.351 0 01.639 2.543c-1.294.694-2.335 1.586-2.335 1.586-1.078.925-2.104 1.963-3.158 3.176a1.353 1.353 0 01-1.021.464h-.017a1.353 1.353 0 01-1.025-.491c-.556-.674-1.023-1.298-1.518-1.958a88.987 88.987 0 00-1.129-1.486 1.353 1.353 0 012.135-1.66c.444.572.824 1.078 1.158 1.525l.469.624c1.316-1.392 3.741-3.308 3.741-3.308.712-.455.635-.433 1.423-.855.203-.108.422-.16.638-.16m0-.5c-.303 0-.605.076-.874.22-.617.332-.729.404-1.059.619l-.396.256-.021.014-.02.016c-.09.071-2.029 1.607-3.381 2.936l-.119-.159a100.1 100.1 0 00-1.163-1.533 1.838 1.838 0 00-1.462-.716 1.854 1.854 0 00-1.462 2.988c.428.55.782 1.022 1.124 1.479.474.633.963 1.287 1.533 1.977.347.421.859.666 1.404.673.56 0 1.069-.232 1.421-.636 1.053-1.212 2.068-2.234 3.106-3.125a14.421 14.421 0 012.246-1.525c.436-.233.755-.623.898-1.096a1.853 1.853 0 00-1.775-2.388z"/></g></svg><svg viewBox="6.12 132.386 20 20" id="icon-cart-check"><g fill="#999"><path d="M26.067 138.27a.648.648 0 00.054-.259.623.623 0 00-.625-.625H10.832l-.474-1.899-.029-.083a.63.63 0 00-.615-.518H6.745c-.347 0-.625.278-.625.625s.278.625.625.625h2.48l3.13 12.524c.005.029.015.054.024.083a.63.63 0 00.615.518H23.15c.347 0 .63-.278.63-.625a.63.63 0 00-.625-.625h-9.673l-.469-1.875H23.62a.624.624 0 00.625-.576.641.641 0 00.039-.117l1.783-7.173zm-2.93 6.616h-1.709l.298-2.5h2.031l-.62 2.5zm-7.466-.005l-.317-2.495h1.938v2.5h-1.621v-.005zm9.014-6.245l-.62 2.5h-2.188l.298-2.5h2.51zm-4.068 2.5h-2.075v-2.422c0-.029 0-.054-.005-.078h2.378l-.298 2.5zm-3.325-2.422v2.422h-2.1l-.322-2.5h2.427c0 .024-.005.049-.005.078zm1.25 3.672h1.924l-.288 2.402c-.005.034-.005.068-.005.098h-1.631v-2.5zm-4.917-3.75a.498.498 0 000 .122l.308 2.378h-2.168l-.62-2.5h2.48zm-1.548 3.75h2.017l.317 2.5h-1.709l-.625-2.5zM14.089 149.886a1.25 1.25 0 100 2.5 1.25 1.25 0 000-2.5zM21.745 149.886a1.25 1.25 0 100 2.5 1.25 1.25 0 000-2.5z"/></g><path fill="#ED1C24" d="M17.957 137.98c-.153-.202-.308-.408-.469-.624a89.456 89.456 0 00-1.158-1.525 1.35 1.35 0 00-1.896-.238 1.354 1.354 0 00-.239 1.897c.43.552.786 1.027 1.129 1.486.495.661.962 1.285 1.518 1.958a1.35 1.35 0 001.025.491h.017c.392 0 .764-.169 1.021-.464 1.054-1.213 2.08-2.251 3.158-3.176 0 0 1.041-.892 2.335-1.586a1.352 1.352 0 10-1.277-2.383c-.788.423-.71.401-1.423.855 0 .001-2.424 1.918-3.741 3.309z"/><path fill="#FFF" d="M23.759 133.656a1.351 1.351 0 01.639 2.543c-1.294.694-2.335 1.586-2.335 1.586-1.078.925-2.104 1.963-3.158 3.176a1.353 1.353 0 01-1.021.464h-.017a1.353 1.353 0 01-1.025-.491c-.556-.674-1.023-1.298-1.518-1.958a88.987 88.987 0 00-1.129-1.486 1.353 1.353 0 012.135-1.66c.444.572.824 1.078 1.158 1.525l.469.624c1.316-1.392 3.741-3.308 3.741-3.308.712-.455.635-.433 1.423-.855.203-.108.422-.16.638-.16m0-.5c-.303 0-.605.076-.874.22-.617.332-.729.404-1.059.619l-.396.256-.021.014-.02.016c-.09.071-2.029 1.607-3.381 2.936l-.119-.159a100.1 100.1 0 00-1.163-1.533 1.838 1.838 0 00-1.462-.716 1.854 1.854 0 00-1.462 2.988c.428.55.782 1.022 1.124 1.479.474.633.963 1.287 1.533 1.977.347.421.859.666 1.404.673.56 0 1.069-.232 1.421-.636 1.053-1.212 2.068-2.234 3.106-3.125a14.421 14.421 0 012.246-1.525c.436-.233.755-.623.898-1.096a1.853 1.853 0 00-1.775-2.388z"/></svg><svg viewBox="6.12 132.386 20 20" id="icon-cart-white"><g fill="#FFF"><path d="M26.067 138.27a.648.648 0 00.054-.259.623.623 0 00-.625-.625H10.832l-.474-1.899-.029-.083a.63.63 0 00-.615-.518H6.745c-.347 0-.625.278-.625.625s.278.625.625.625h2.48l3.13 12.524c.005.029.015.054.024.083a.63.63 0 00.615.518H23.15c.347 0 .63-.278.63-.625a.63.63 0 00-.625-.625h-9.673l-.469-1.875H23.62a.624.624 0 00.625-.576.641.641 0 00.039-.117l1.783-7.173zm-2.93 6.616h-1.709l.298-2.5h2.031l-.62 2.5zm-7.466-.005l-.317-2.495h1.938v2.5h-1.621v-.005zm9.014-6.245l-.62 2.5h-2.188l.298-2.5h2.51zm-4.068 2.5h-2.075v-2.422c0-.029 0-.054-.005-.078h2.378l-.298 2.5zm-3.325-2.422v2.422h-2.1l-.322-2.5h2.427c0 .024-.005.049-.005.078zm1.25 3.672h1.924l-.288 2.402c-.005.034-.005.068-.005.098h-1.631v-2.5zm-4.917-3.75a.498.498 0 000 .122l.308 2.378h-2.168l-.62-2.5h2.48zm-1.548 3.75h2.017l.317 2.5h-1.709l-.625-2.5zM14.089 149.886a1.25 1.25 0 100 2.5 1.25 1.25 0 000-2.5zM21.745 149.886a1.25 1.25 0 100 2.5 1.25 1.25 0 000-2.5z"/></g></svg><svg viewBox="0 0 24 24" id="icon-check"><path d="M9 16.2L4.8 12l-1.4 1.4L9 19 21 7l-1.4-1.4L9 16.2z"/></svg><svg viewBox="0 0 20 20" id="icon-checkbox"><path fill-rule="evenodd" clip-rule="evenodd" d="M15.973 5.418a.75.75 0 01.11 1.055l-6.5 8a.75.75 0 01-1.113.057L3.94 10 5 8.94l3.942 3.942 5.976-7.355a.75.75 0 011.055-.11z" fill="#151528"/></svg><svg viewBox="0 0 20 20" id="icon-clear"><path d="M2 10l-.423-.352a.55.55 0 000 .704L2 10zm4.7 5.64l-.422.352.422-.352zm0-11.28l-.422-.352.422.352zm-4.277 5.992l4.7-5.64-.845-.704-4.7 5.64.845.704zM7.468 4.55H18v-1.1H7.468v1.1zM18.45 5v10h1.1V5h-1.1zM18 15.45H7.468v1.1H18v-1.1zm-10.877-.162l-4.7-5.64-.846.704 4.7 5.64.846-.704zm.345.162a.45.45 0 01-.345-.162l-.845.704c.294.354.73.558 1.19.558v-1.1zM18.45 15a.45.45 0 01-.45.45v1.1A1.55 1.55 0 0019.55 15h-1.1zM18 4.55a.45.45 0 01.45.45h1.1A1.55 1.55 0 0018 3.45v1.1zm-10.877.162a.45.45 0 01.345-.162v-1.1c-.46 0-.896.204-1.19.558l.845.704zM10.03 6.97l-.53-.53L8.44 7.5l.53.53 1.06-1.06zm5 1.06a.75.75 0 00-1.06-1.06l1.06 1.06zm-1.06 5a.75.75 0 101.06-1.06l-1.06 1.06zm-5-1.06l-.53.53 1.06 1.06.53-.53-1.06-1.06zm0-3.94l2.5 2.5 1.06-1.06-2.5-2.5-1.06 1.06zm3.56 2.5l2.5-2.5-1.06-1.06-2.5 2.5 1.06 1.06zm-1.06 0l2.5 2.5 1.06-1.06-2.5-2.5-1.06 1.06zm0-1.06l-2.5 2.5 1.06 1.06 2.5-2.5-1.06-1.06z"/></svg><svg viewBox="0 0 24 24" id="icon-close"><path d="M24 1.416L22.586 0 12 10.586 1.415 0 0 1.415 10.585 12 0 22.586 1.415 24 12 13.415 22.586 24 24 22.586 13.415 12z"/></svg><svg viewBox="0 0 20 20" id="icon-comment"><ellipse cx="10.667" cy="9.333" rx="6.667" ry="5.333"/><path d="M5.333 17.333l.667-8 6.667 1.334-7.334 6.666z"/></svg><svg viewBox="-296 386 20 20" id="icon-contact"><path d="M-286 390.742l-7.5 7.283V406h5v-5.217h5V406h5v-7.976l-7.5-7.282zm-10 4.952l10-9.694 10 9.681-1.134 1.274-8.866-8.581-8.866 8.594-1.134-1.274z"/></svg><svg viewBox="0 0 24 24" id="icon-delivery"><path d="M20 8h-3V4H3c-1.1 0-2 .9-2 2v11h2c0 1.66 1.34 3 3 3s3-1.34 3-3h6c0 1.66 1.34 3 3 3s3-1.34 3-3h2v-5l-3-4zm-.5 1.5l1.96 2.5H17V9.5h2.5zM6 18c-.55 0-1-.45-1-1s.45-1 1-1 1 .45 1 1-.45 1-1 1zm12 0c-.55 0-1-.45-1-1s.45-1 1-1 1 .45 1 1-.45 1-1 1z"/></svg><svg viewBox="0 0 24 24" id="icon-done"><path d="M9 16.2L4.8 12l-1.4 1.4L9 19 21 7l-1.4-1.4L9 16.2z"/></svg><svg viewBox="-296 386 20 20" id="icon-home"><path d="M-286 390.742l-7.5 7.283V406h5v-5.217h5V406h5v-7.976l-7.5-7.282zm-10 4.952l10-9.694 10 9.681-1.134 1.274-8.866-8.581-8.866 8.594-1.134-1.274z"/></svg><svg viewBox="296 386 20 20" id="icon-ig" xmlns="http://www.w3.org/2000/svg"><path d="M306.001 386c-2.717 0-3.056.013-4.123.06-1.065.05-1.79.217-2.427.465a4.905 4.905 0 00-1.772 1.153 4.876 4.876 0 00-1.153 1.771c-.248.638-.416 1.363-.465 2.428-.05 1.067-.06 1.406-.06 4.123s.013 3.056.06 4.123c.05 1.063.217 1.789.465 2.427a4.914 4.914 0 001.153 1.772 4.88 4.88 0 001.772 1.152c.638.247 1.363.416 2.427.465 1.067.051 1.406.061 4.123.061 2.716 0 3.054-.013 4.123-.061 1.063-.049 1.789-.218 2.426-.465a4.906 4.906 0 001.773-1.152 4.89 4.89 0 001.152-1.772c.246-.638.416-1.363.465-2.427.05-1.067.06-1.406.06-4.123s-.014-3.056-.061-4.123c-.049-1.064-.219-1.791-.465-2.428a4.899 4.899 0 00-1.152-1.771 4.874 4.874 0 00-1.773-1.153c-.637-.248-1.363-.416-2.426-.465-1.068-.05-1.406-.06-4.122-.06zm0 1.8c2.667 0 2.986.014 4.041.059.975.046 1.504.208 1.855.346.469.181.801.397 1.152.747.35.35.566.683.746 1.151.137.352.301.881.346 1.856.047 1.055.057 1.372.057 4.042s-.012 2.987-.061 4.041c-.051.976-.213 1.505-.352 1.856-.186.468-.398.8-.748 1.151a3.13 3.13 0 01-1.15.747c-.35.137-.889.3-1.863.345-1.061.047-1.373.058-4.048.058-2.676 0-2.988-.013-4.049-.062-.976-.051-1.513-.213-1.863-.352a3.085 3.085 0 01-1.149-.748 3.051 3.051 0 01-.75-1.15c-.138-.35-.299-.888-.35-1.863-.038-1.049-.051-1.373-.051-4.036s.013-2.988.051-4.051c.051-.975.212-1.512.35-1.861.175-.475.399-.8.75-1.151.349-.35.675-.574 1.149-.749.35-.138.876-.301 1.851-.351 1.063-.037 1.375-.05 4.049-.05l.037.025zm0 3.065a5.134 5.134 0 100 10.27 5.135 5.135 0 000-10.27zm0 8.469a3.333 3.333 0 11-.002-6.666 3.333 3.333 0 01.002 6.666zm6.536-8.671a1.2 1.2 0 11-2.4 0 1.2 1.2 0 012.4 0z"/></svg><svg viewBox="0 0 20 20" id="icon-ig-color"><radialGradient id="ava" cx="-1100.977" cy="947.802" r="9.999" gradientTransform="matrix(0 -1.9825 1.844 0 -2038.428 -1775.151)" gradientUnits="userSpaceOnUse"><stop offset="0" stop-color="#fd5"/><stop offset=".1" stop-color="#fd5"/><stop offset=".5" stop-color="#ff543e"/><stop offset="1" stop-color="#c837ab"/></radialGradient><path fill="url(#ava)" d="M-276.02 390.334c-.063-.803-.2-1.343-.48-1.914a3.973 3.973 0 00-.854-1.173c-.662-.632-1.472-1.017-2.437-1.155-.467-.066-.561-.088-2.951-.092h-3.254c-4.174 0-5.396.004-5.633.024-.857.07-1.39.205-1.971.494-.448.224-.801.48-1.149.843-.635.658-1.019 1.469-1.158 2.433-.068.468-.087.563-.092 2.952v3.25c0 4.173.005 5.393.025 5.63.069.833.2 1.358.477 1.933a4.206 4.206 0 002.73 2.23c.412.104.868.164 1.452.192.249.011 2.771.019 5.297.019s5.051-.004 5.293-.016c.678-.031 1.07-.084 1.504-.197a4.187 4.187 0 002.73-2.234c.271-.561.408-1.104.472-1.896.013-.173.019-2.92.019-5.664 0-2.745-.006-5.487-.02-5.659zm-2.64 8.71c-.036.787-.16 1.323-.342 1.793-.19.487-.442.898-.853 1.31-.412.41-.823.663-1.308.852-.471.184-1.008.308-1.793.344-.789.035-1.039.045-3.045.045-2.004 0-2.255-.01-3.043-.045-.786-.036-1.322-.16-1.792-.344a3.622 3.622 0 01-1.309-.852 3.626 3.626 0 01-.852-1.31c-.183-.47-.307-1.006-.343-1.793-.036-.787-.045-1.038-.045-3.044s.009-2.257.044-3.045c.035-.786.16-1.323.343-1.793a3.61 3.61 0 01.852-1.308c.41-.411.822-.663 1.309-.853.47-.182 1.006-.306 1.792-.342.787-.036 1.039-.045 3.044-.045 2.004 0 2.256.008 3.043.045.785.035 1.322.159 1.793.342.488.189.898.441 1.31.853.411.41.663.822.853 1.308.182.47.306 1.007.342 1.793.037.787.046 1.039.046 3.045s-.009 2.257-.046 3.044z"/><radialGradient id="avb" cx="-385.197" cy="213.894" r="9.998" gradientTransform="matrix(.1739 .869 -3.582 .7174 533.797 568.725)" gradientUnits="userSpaceOnUse"><stop offset="0" stop-color="#3771c8"/><stop offset=".128" stop-color="#3771c8"/><stop offset="1" stop-color="#60f" stop-opacity="0"/></radialGradient><path fill="url(#avb)" d="M-276.02 390.334c-.063-.803-.2-1.343-.48-1.914a3.973 3.973 0 00-.854-1.173c-.662-.632-1.472-1.017-2.437-1.155-.467-.066-.561-.088-2.951-.092h-3.254c-4.174 0-5.396.004-5.633.024-.857.07-1.39.205-1.971.494-.448.224-.801.48-1.149.843-.635.658-1.019 1.469-1.158 2.433-.068.468-.087.563-.092 2.952v3.25c0 4.173.005 5.393.025 5.63.069.833.2 1.358.477 1.933a4.206 4.206 0 002.73 2.23c.412.104.868.164 1.452.192.249.011 2.771.019 5.297.019s5.051-.004 5.293-.016c.678-.031 1.07-.084 1.504-.197a4.187 4.187 0 002.73-2.234c.271-.561.408-1.104.472-1.896.013-.173.019-2.92.019-5.664 0-2.745-.006-5.487-.02-5.659zm-2.64 8.71c-.036.787-.16 1.323-.342 1.793-.19.487-.442.898-.853 1.31-.412.41-.823.663-1.308.852-.471.184-1.008.308-1.793.344-.789.035-1.039.045-3.045.045-2.004 0-2.255-.01-3.043-.045-.786-.036-1.322-.16-1.792-.344a3.622 3.622 0 01-1.309-.852 3.626 3.626 0 01-.852-1.31c-.183-.47-.307-1.006-.343-1.793-.036-.787-.045-1.038-.045-3.044s.009-2.257.044-3.045c.035-.786.16-1.323.343-1.793a3.61 3.61 0 01.852-1.308c.41-.411.822-.663 1.309-.853.47-.182 1.006-.306 1.792-.342.787-.036 1.039-.045 3.044-.045 2.004 0 2.256.008 3.043.045.785.035 1.322.159 1.793.342.488.189.898.441 1.31.853.411.41.663.822.853 1.308.182.47.306 1.007.342 1.793.037.787.046 1.039.046 3.045s-.009 2.257-.046 3.044z"/><radialGradient id="avc" cx="-1100.977" cy="947.802" r="9.999" gradientTransform="matrix(0 -1.9825 1.844 0 -2038.428 -1775.151)" gradientUnits="userSpaceOnUse"><stop offset="0" stop-color="#fd5"/><stop offset=".1" stop-color="#fd5"/><stop offset=".5" stop-color="#ff543e"/><stop offset="1" stop-color="#c837ab"/></radialGradient><path fill="url(#avc)" d="M-280.246 391.646a2.248 2.248 0 00-.553-.85 2.28 2.28 0 00-.848-.553c-.26-.102-.65-.221-1.371-.254-.777-.036-1.011-.043-2.983-.043h-.662v-.003c-1.376.002-1.64.011-2.321.042-.72.032-1.11.152-1.371.255a2.286 2.286 0 00-.849.552c-.259.26-.419.505-.553.85-.101.262-.221.652-.254 1.372-.035.778-.042 1.012-.042 2.983s.007 2.206.042 2.985c.032.72.153 1.109.254 1.369.135.346.294.592.553.85.259.26.505.419.849.553.261.102.651.221 1.371.254.778.036 1.012.044 2.983.044s2.206-.008 2.983-.044c.721-.032 1.111-.151 1.371-.254.346-.134.59-.293.848-.553.26-.258.42-.504.553-.849.103-.26.223-.649.255-1.37.036-.779.044-1.013.044-2.983s-.008-2.205-.044-2.983c-.032-.721-.153-1.111-.255-1.37zm-5.754 8.147a3.792 3.792 0 110-7.585 3.792 3.792 0 010 7.585zm3.94-6.848a.887.887 0 11.001-1.773.887.887 0 01-.001 1.773z"/><radialGradient id="avd" cx="-385.197" cy="213.894" r="9.998" gradientTransform="matrix(.1739 .869 -3.582 .7174 533.797 568.725)" gradientUnits="userSpaceOnUse"><stop offset="0" stop-color="#3771c8"/><stop offset=".128" stop-color="#3771c8"/><stop offset="1" stop-color="#60f" stop-opacity="0"/></radialGradient><path fill="url(#avd)" d="M-280.246 391.646a2.248 2.248 0 00-.553-.85 2.28 2.28 0 00-.848-.553c-.26-.102-.65-.221-1.371-.254-.777-.036-1.011-.043-2.983-.043h-.662v-.003c-1.376.002-1.64.011-2.321.042-.72.032-1.11.152-1.371.255a2.286 2.286 0 00-.849.552c-.259.26-.419.505-.553.85-.101.262-.221.652-.254 1.372-.035.778-.042 1.012-.042 2.983s.007 2.206.042 2.985c.032.72.153 1.109.254 1.369.135.346.294.592.553.85.259.26.505.419.849.553.261.102.651.221 1.371.254.778.036 1.012.044 2.983.044s2.206-.008 2.983-.044c.721-.032 1.111-.151 1.371-.254.346-.134.59-.293.848-.553.26-.258.42-.504.553-.849.103-.26.223-.649.255-1.37.036-.779.044-1.013.044-2.983s-.008-2.205-.044-2.983c-.032-.721-.153-1.111-.255-1.37zm-5.754 8.147a3.792 3.792 0 110-7.585 3.792 3.792 0 010 7.585zm3.94-6.848a.887.887 0 11.001-1.773.887.887 0 01-.001 1.773z"/><radialGradient id="ave" cx="-1100.977" cy="947.802" r="9.999" gradientTransform="matrix(0 -1.9825 1.844 0 -2038.428 -1775.151)" gradientUnits="userSpaceOnUse"><stop offset="0" stop-color="#fd5"/><stop offset=".1" stop-color="#fd5"/><stop offset=".5" stop-color="#ff543e"/><stop offset="1" stop-color="#c837ab"/></radialGradient><circle fill="url(#ave)" cx="-286" cy="396.001" r="2.462"/><radialGradient id="avf" cx="-385.197" cy="213.894" r="9.998" gradientTransform="matrix(.1739 .869 -3.582 .7174 533.797 568.725)" gradientUnits="userSpaceOnUse"><stop offset="0" stop-color="#3771c8"/><stop offset=".128" stop-color="#3771c8"/><stop offset="1" stop-color="#60f" stop-opacity="0"/></radialGradient><circle fill="url(#avf)" cx="-286" cy="396.001" r="2.462"/><path fill="#FFF" d="M-279.002 391.162a3.617 3.617 0 00-.853-1.308 3.617 3.617 0 00-1.31-.853c-.471-.183-1.008-.307-1.793-.342-.787-.037-1.039-.045-3.043-.045-2.006 0-2.257.009-3.044.045-.786.036-1.322.16-1.792.342a3.612 3.612 0 00-1.309.853 3.594 3.594 0 00-.852 1.308c-.183.47-.308 1.007-.343 1.793-.035.788-.044 1.039-.044 3.045s.009 2.257.045 3.044c.036.787.16 1.323.343 1.793.189.486.441.897.852 1.31.41.409.822.663 1.309.852.47.184 1.006.308 1.792.344.788.035 1.04.045 3.043.045 2.006 0 2.256-.01 3.045-.045.785-.036 1.322-.16 1.793-.344a3.631 3.631 0 001.308-.852c.41-.411.662-.822.853-1.31.182-.47.306-1.006.342-1.793.037-.787.046-1.038.046-3.044s-.009-2.258-.046-3.045c-.036-.786-.16-1.323-.342-1.793zm-.989 7.82c-.032.721-.152 1.11-.255 1.37a2.252 2.252 0 01-.553.849c-.258.26-.502.419-.848.553-.26.103-.65.222-1.371.254-.777.036-1.012.044-2.983.044-1.972 0-2.206-.008-2.983-.044-.72-.033-1.11-.152-1.371-.254a2.28 2.28 0 01-.849-.553 2.285 2.285 0 01-.553-.85c-.101-.26-.222-.649-.254-1.369-.035-.779-.042-1.015-.042-2.985 0-1.972.007-2.205.042-2.983.033-.72.153-1.11.254-1.372.134-.345.294-.59.553-.85.258-.258.504-.418.849-.552.261-.103.651-.223 1.371-.255.681-.031.945-.04 2.321-.042v.003h.662c1.972 0 2.206.007 2.983.043.721.033 1.111.152 1.371.254.344.134.59.294.848.553.26.258.42.504.553.85.103.26.223.649.255 1.37.036.778.044 1.013.044 2.983s-.008 2.204-.044 2.983z"/><circle fill="#FFF" cx="-282.06" cy="392.059" r=".886"/><path fill="#FFF" d="M-286 392.208a3.793 3.793 0 10.001 7.585 3.793 3.793 0 00-.001-7.585zm0 6.255a2.461 2.461 0 110-4.923 2.461 2.461 0 010 4.923z"/></svg><svg viewBox="-296 386 20 20" id="icon-ig-color2" xmlns="http://www.w3.org/2000/svg"><radialGradient id="awa" cx="-1100.977" cy="947.802" r="9.999" gradientTransform="matrix(0 -1.9825 1.844 0 -2038.428 -1775.151)" gradientUnits="userSpaceOnUse"><stop offset="0" stop-color="#fd5"/><stop offset=".1" stop-color="#fd5"/><stop offset=".5" stop-color="#ff543e"/><stop offset="1" stop-color="#c837ab"/></radialGradient><path fill="url(#awa)" d="M-276.02 390.334c-.063-.803-.2-1.343-.48-1.914a3.973 3.973 0 00-.854-1.173c-.662-.632-1.472-1.017-2.437-1.155-.467-.066-.561-.088-2.951-.092h-3.254c-4.174 0-5.396.004-5.633.024-.857.07-1.39.205-1.971.494-.448.224-.801.48-1.149.843-.635.658-1.019 1.469-1.158 2.433-.068.468-.087.563-.092 2.952v3.25c0 4.173.005 5.393.025 5.63.069.833.2 1.358.477 1.933a4.206 4.206 0 002.73 2.23c.412.104.868.164 1.452.192.249.011 2.771.019 5.297.019s5.051-.004 5.293-.016c.678-.031 1.07-.084 1.504-.197a4.187 4.187 0 002.73-2.234c.271-.561.408-1.104.472-1.896.013-.173.019-2.92.019-5.664 0-2.745-.006-5.487-.02-5.659zm-2.64 8.71c-.036.787-.16 1.323-.342 1.793-.19.487-.442.898-.853 1.31-.412.41-.823.663-1.308.852-.471.184-1.008.308-1.793.344-.789.035-1.039.045-3.045.045-2.004 0-2.255-.01-3.043-.045-.786-.036-1.322-.16-1.792-.344a3.622 3.622 0 01-1.309-.852 3.626 3.626 0 01-.852-1.31c-.183-.47-.307-1.006-.343-1.793-.036-.787-.045-1.038-.045-3.044s.009-2.257.044-3.045c.035-.786.16-1.323.343-1.793a3.61 3.61 0 01.852-1.308c.41-.411.822-.663 1.309-.853.47-.182 1.006-.306 1.792-.342.787-.036 1.039-.045 3.044-.045 2.004 0 2.256.008 3.043.045.785.035 1.322.159 1.793.342.488.189.898.441 1.31.853.411.41.663.822.853 1.308.182.47.306 1.007.342 1.793.037.787.046 1.039.046 3.045s-.009 2.257-.046 3.044z"/><radialGradient id="awb" cx="-385.197" cy="213.894" r="9.998" gradientTransform="matrix(.1739 .869 -3.582 .7174 533.797 568.725)" gradientUnits="userSpaceOnUse"><stop offset="0" stop-color="#3771c8"/><stop offset=".128" stop-color="#3771c8"/><stop offset="1" stop-color="#60f" stop-opacity="0"/></radialGradient><path fill="url(#awb)" d="M-276.02 390.334c-.063-.803-.2-1.343-.48-1.914a3.973 3.973 0 00-.854-1.173c-.662-.632-1.472-1.017-2.437-1.155-.467-.066-.561-.088-2.951-.092h-3.254c-4.174 0-5.396.004-5.633.024-.857.07-1.39.205-1.971.494-.448.224-.801.48-1.149.843-.635.658-1.019 1.469-1.158 2.433-.068.468-.087.563-.092 2.952v3.25c0 4.173.005 5.393.025 5.63.069.833.2 1.358.477 1.933a4.206 4.206 0 002.73 2.23c.412.104.868.164 1.452.192.249.011 2.771.019 5.297.019s5.051-.004 5.293-.016c.678-.031 1.07-.084 1.504-.197a4.187 4.187 0 002.73-2.234c.271-.561.408-1.104.472-1.896.013-.173.019-2.92.019-5.664 0-2.745-.006-5.487-.02-5.659zm-2.64 8.71c-.036.787-.16 1.323-.342 1.793-.19.487-.442.898-.853 1.31-.412.41-.823.663-1.308.852-.471.184-1.008.308-1.793.344-.789.035-1.039.045-3.045.045-2.004 0-2.255-.01-3.043-.045-.786-.036-1.322-.16-1.792-.344a3.622 3.622 0 01-1.309-.852 3.626 3.626 0 01-.852-1.31c-.183-.47-.307-1.006-.343-1.793-.036-.787-.045-1.038-.045-3.044s.009-2.257.044-3.045c.035-.786.16-1.323.343-1.793a3.61 3.61 0 01.852-1.308c.41-.411.822-.663 1.309-.853.47-.182 1.006-.306 1.792-.342.787-.036 1.039-.045 3.044-.045 2.004 0 2.256.008 3.043.045.785.035 1.322.159 1.793.342.488.189.898.441 1.31.853.411.41.663.822.853 1.308.182.47.306 1.007.342 1.793.037.787.046 1.039.046 3.045s-.009 2.257-.046 3.044z"/><radialGradient id="awc" cx="-1100.977" cy="947.802" r="9.999" gradientTransform="matrix(0 -1.9825 1.844 0 -2038.428 -1775.151)" gradientUnits="userSpaceOnUse"><stop offset="0" stop-color="#fd5"/><stop offset=".1" stop-color="#fd5"/><stop offset=".5" stop-color="#ff543e"/><stop offset="1" stop-color="#c837ab"/></radialGradient><path fill="url(#awc)" d="M-280.246 391.646a2.248 2.248 0 00-.553-.85 2.28 2.28 0 00-.848-.553c-.26-.102-.65-.221-1.371-.254-.777-.036-1.011-.043-2.983-.043h-.662v-.003c-1.376.002-1.64.011-2.321.042-.72.032-1.11.152-1.371.255a2.286 2.286 0 00-.849.552c-.259.26-.419.505-.553.85-.101.262-.221.652-.254 1.372-.035.778-.042 1.012-.042 2.983s.007 2.206.042 2.985c.032.72.153 1.109.254 1.369.135.346.294.592.553.85.259.26.505.419.849.553.261.102.651.221 1.371.254.778.036 1.012.044 2.983.044s2.206-.008 2.983-.044c.721-.032 1.111-.151 1.371-.254.346-.134.59-.293.848-.553.26-.258.42-.504.553-.849.103-.26.223-.649.255-1.37.036-.779.044-1.013.044-2.983s-.008-2.205-.044-2.983c-.032-.721-.153-1.111-.255-1.37zm-5.754 8.147a3.792 3.792 0 110-7.585 3.792 3.792 0 010 7.585zm3.94-6.848a.887.887 0 11.001-1.773.887.887 0 01-.001 1.773z"/><radialGradient id="awd" cx="-385.197" cy="213.894" r="9.998" gradientTransform="matrix(.1739 .869 -3.582 .7174 533.797 568.725)" gradientUnits="userSpaceOnUse"><stop offset="0" stop-color="#3771c8"/><stop offset=".128" stop-color="#3771c8"/><stop offset="1" stop-color="#60f" stop-opacity="0"/></radialGradient><path fill="url(#awd)" d="M-280.246 391.646a2.248 2.248 0 00-.553-.85 2.28 2.28 0 00-.848-.553c-.26-.102-.65-.221-1.371-.254-.777-.036-1.011-.043-2.983-.043h-.662v-.003c-1.376.002-1.64.011-2.321.042-.72.032-1.11.152-1.371.255a2.286 2.286 0 00-.849.552c-.259.26-.419.505-.553.85-.101.262-.221.652-.254 1.372-.035.778-.042 1.012-.042 2.983s.007 2.206.042 2.985c.032.72.153 1.109.254 1.369.135.346.294.592.553.85.259.26.505.419.849.553.261.102.651.221 1.371.254.778.036 1.012.044 2.983.044s2.206-.008 2.983-.044c.721-.032 1.111-.151 1.371-.254.346-.134.59-.293.848-.553.26-.258.42-.504.553-.849.103-.26.223-.649.255-1.37.036-.779.044-1.013.044-2.983s-.008-2.205-.044-2.983c-.032-.721-.153-1.111-.255-1.37zm-5.754 8.147a3.792 3.792 0 110-7.585 3.792 3.792 0 010 7.585zm3.94-6.848a.887.887 0 11.001-1.773.887.887 0 01-.001 1.773z"/><radialGradient id="awe" cx="-1100.977" cy="947.802" r="9.999" gradientTransform="matrix(0 -1.9825 1.844 0 -2038.428 -1775.151)" gradientUnits="userSpaceOnUse"><stop offset="0" stop-color="#fd5"/><stop offset=".1" stop-color="#fd5"/><stop offset=".5" stop-color="#ff543e"/><stop offset="1" stop-color="#c837ab"/></radialGradient><circle fill="url(#awe)" cx="-286" cy="396.001" r="2.462"/><radialGradient id="awf" cx="-385.197" cy="213.894" r="9.998" gradientTransform="matrix(.1739 .869 -3.582 .7174 533.797 568.725)" gradientUnits="userSpaceOnUse"><stop offset="0" stop-color="#3771c8"/><stop offset=".128" stop-color="#3771c8"/><stop offset="1" stop-color="#60f" stop-opacity="0"/></radialGradient><circle fill="url(#awf)" cx="-286" cy="396.001" r="2.462"/><path fill="#FFF" d="M-279.002 391.162a3.617 3.617 0 00-.853-1.308 3.617 3.617 0 00-1.31-.853c-.471-.183-1.008-.307-1.793-.342-.787-.037-1.039-.045-3.043-.045-2.006 0-2.257.009-3.044.045-.786.036-1.322.16-1.792.342a3.612 3.612 0 00-1.309.853 3.594 3.594 0 00-.852 1.308c-.183.47-.308 1.007-.343 1.793-.035.788-.044 1.039-.044 3.045s.009 2.257.045 3.044c.036.787.16 1.323.343 1.793.189.486.441.897.852 1.31.41.409.822.663 1.309.852.47.184 1.006.308 1.792.344.788.035 1.04.045 3.043.045 2.006 0 2.256-.01 3.045-.045.785-.036 1.322-.16 1.793-.344a3.631 3.631 0 001.308-.852c.41-.411.662-.822.853-1.31.182-.47.306-1.006.342-1.793.037-.787.046-1.038.046-3.044s-.009-2.258-.046-3.045c-.036-.786-.16-1.323-.342-1.793zm-.989 7.82c-.032.721-.152 1.11-.255 1.37a2.252 2.252 0 01-.553.849c-.258.26-.502.419-.848.553-.26.103-.65.222-1.371.254-.777.036-1.012.044-2.983.044-1.972 0-2.206-.008-2.983-.044-.72-.033-1.11-.152-1.371-.254a2.28 2.28 0 01-.849-.553 2.285 2.285 0 01-.553-.85c-.101-.26-.222-.649-.254-1.369-.035-.779-.042-1.015-.042-2.985 0-1.972.007-2.205.042-2.983.033-.72.153-1.11.254-1.372.134-.345.294-.59.553-.85.258-.258.504-.418.849-.552.261-.103.651-.223 1.371-.255.681-.031.945-.04 2.321-.042v.003h.662c1.972 0 2.206.007 2.983.043.721.033 1.111.152 1.371.254.344.134.59.294.848.553.26.258.42.504.553.85.103.26.223.649.255 1.37.036.778.044 1.013.044 2.983s-.008 2.204-.044 2.983z"/><circle fill="#FFF" cx="-282.06" cy="392.059" r=".886"/><path fill="#FFF" d="M-286 392.208a3.793 3.793 0 10.001 7.585 3.793 3.793 0 00-.001-7.585zm0 6.255a2.461 2.461 0 110-4.923 2.461 2.461 0 010 4.923z"/></svg><svg viewBox="0 139 20 20" id="icon-list"><path d="M2.5 139H.834c-.5 0-.834.32-.834.8v1.6c0 .48.333.8.833.8H2.5c.5 0 .833-.32.833-.8v-1.6c.001-.48-.333-.8-.833-.8zm0 8.4H.834c-.5 0-.833.32-.833.8v1.6c0 .48.333.8.833.8H2.5c.5 0 .833-.32.833-.8v-1.6c.001-.48-.333-.8-.833-.8zm0 8.4H.834c-.5 0-.833.32-.833.8v1.6c0 .48.333.8.833.8H2.5c.5 0 .833-.32.833-.8v-1.6c.001-.48-.333-.8-.833-.8zM19.167 139H7.5c-.5 0-.833.32-.833.8v1.6c0 .48.333.8.833.8h11.667c.5 0 .833-.32.833-.8v-1.6c0-.48-.333-.8-.833-.8zm0 8.4H7.5c-.5 0-.833.32-.833.8v1.6c0 .48.333.8.833.8h11.667c.5 0 .833-.32.833-.8v-1.6c0-.48-.333-.8-.833-.8zm0 8.4H7.5c-.5 0-.833.32-.833.8v1.6c0 .48.333.8.833.8h11.667c.5 0 .833-.32.833-.8v-1.6c0-.48-.333-.8-.833-.8z"/></svg><svg viewBox="-0.028 3.003 50 30" id="icon-menu-burger" xmlns="http://www.w3.org/2000/svg"><path d="M1.137 3.003C.51 3.003 0 3.431 0 4.013v1.981c0 .558.494 1.01 1.14 1.01h47.67c.628 0 1.138-.428 1.138-1.01V4.013c0-.558-.494-1.01-1.138-1.01H1.137zM1.137 16.002C.51 16.002 0 16.431 0 17.013v1.98c0 .557.494 1.01 1.14 1.01h47.67c.628 0 1.138-.428 1.138-1.01v-1.98c0-.559-.494-1.011-1.138-1.011H1.137zM1.137 29.001C.51 29.001 0 29.43 0 30.012v1.981c0 .557.494 1.01 1.14 1.01h47.67c.628 0 1.138-.428 1.138-1.01v-1.981c0-.558-.494-1.011-1.138-1.011H1.137z"/></svg><svg viewBox="-2.142 0.252 20 20" id="icon-phone"><path d="M5.142.276c-.044.016-.375.191-.733.388-.358.198-.825.455-1.035.569-.49.267-.57.342-.622.584-.038.166-.025.195.445.962.782 1.282 2.386 3.835 2.453 3.908a.72.72 0 00.346.199c.184.044.191.043 1.06-.436.426-.236.9-.497 1.055-.58.385-.209.486-.319.53-.579.034-.202.02-.236-.343-.814C6.594 1.774 5.765.465 5.723.417c-.119-.136-.4-.205-.581-.141zM2.124 2.374c-.864.238-1.453.84-1.741 1.781-.465 1.512-.108 3.893.979 6.537 1.1 2.673 2.764 5.212 4.579 6.987 1.555 1.519 3.038 2.355 4.522 2.552.207.028.828.028 1.019.001.355-.051.671-.133.984-.251.141-.055.289-.119.308-.135a141.43 141.43 0 00-1.589-2.65c-.171-.263-.506-.788-1.026-1.61-.277-.436-.228-.402-.478-.342a2.832 2.832 0 01-.888.008c-.54-.096-1.159-.393-1.711-.818a8.294 8.294 0 01-.859-.802 8.98 8.98 0 01-.917-1.228 3.951 3.951 0 01-.355-.688 7.573 7.573 0 01-.526-1.907 4.891 4.891 0 01.006-1.129c.086-.552.29-1.012.615-1.392a.476.476 0 00.082-.112 27.933 27.933 0 01-.196-.32 80.509 80.509 0 01-1.33-2.309C2.8 3.118 2.337 2.327 2.307 2.329c-.008 0-.091.02-.183.045zm10.588 10.56c-.031.013-.386.204-.791.427-.402.223-.869.478-1.035.567-.324.177-.437.264-.502.393a.493.493 0 00.012.489c1.142 1.945 2.736 4.576 2.826 4.666.03.028.1.075.158.102.096.045.119.05.261.05h.156l.259-.144 1.076-.59c.448-.247.834-.467.86-.491a.62.62 0 00.16-.25.797.797 0 00.011-.396c-.01-.03-.163-.29-.339-.577-.178-.288-.657-1.076-1.067-1.751-1.069-1.759-1.392-2.283-1.445-2.348a.489.489 0 00-.156-.11.494.494 0 00-.248-.055.64.64 0 00-.196.018z"/></svg><svg viewBox="281 371 50 50" id="icon-search" xmlns="http://www.w3.org/2000/svg"><path d="M287.253 377.252c8.336-8.336 21.852-8.336 30.189 0 7.77 7.77 8.297 20.038 1.584 28.42L331 417.646 327.647 421l-11.975-11.975c-8.382 6.713-20.65 6.186-28.419-1.584-8.337-8.337-8.337-21.853 0-30.189zm26.833 3.354c-6.482-6.484-16.996-6.484-23.479 0-6.484 6.484-6.484 16.996 0 23.479 6.483 6.484 16.997 6.484 23.479 0 6.485-6.482 6.485-16.995 0-23.479z"/></svg><svg viewBox="0 0 20 20" id="icon-star"><path d="M10 1.875l1.965 6.046h6.357l-5.143 3.737 1.964 6.046L10 13.967l-5.143 3.737 1.965-6.046L1.678 7.92h6.358L10 1.875z"/></svg><svg viewBox="0 0 12 14" id="icon-thumb-up"><path d="M12 6c0-.55-.45-1-1-1H5.82l.66-3.18.02-.23c0-.31-.13-.59-.33-.8L5.38 0 .44 4.939A1.51 1.51 0 000 6v6.5c0 .83.67 1.5 1.5 1.5h6.75c.62 0 1.15-.38 1.38-.91l2.26-5.29c.07-.17.11-.361.11-.55V6z"/></svg><svg viewBox="81.478 171.478 20 20" id="icon-tile"><path d="M101.478 190.238v-17.522c0-.685-.555-1.239-1.239-1.239H82.717c-.685 0-1.239.555-1.239 1.239v17.522a1.236 1.236 0 001.239 1.239h17.522a1.238 1.238 0 001.239-1.239zM99 173.956v6.283h-6.283v-6.283H99zm-15.044 0h6.283v6.283h-6.283v-6.283zm0 15.044v-6.283h6.283V189h-6.283zm8.761 0v-6.283H99V189h-6.283z"/></svg><svg viewBox="0 0 24 24" id="icon-trash"><path d="M0 0h24v24H0V0z" fill="none"/><path d="M16 9v10H8V9h8m-1.5-6h-5l-1 1H5v2h14V4h-3.5l-1-1zM18 7H6v12c0 1.1.9 2 2 2h8c1.1 0 2-.9 2-2V7z"/></svg><svg viewBox="0 772 20 20" id="icon-user"><path d="M4.41 778.516c0-3.046 2.457-5.516 5.487-5.516s5.487 2.47 5.487 5.516c0 3.047-2.457 5.517-5.487 5.517s-5.487-2.47-5.487-5.517zm5.487-3.774c-2.073 0-3.754 1.69-3.754 3.774s1.681 3.775 3.754 3.775 3.754-1.69 3.754-3.775c.001-2.084-1.681-3.774-3.754-3.774zM0 789.552c2.023-2.319 5.754-3.777 9.891-3.777 4.139 0 7.871 1.459 9.894 3.78a.874.874 0 01-.081 1.229.864.864 0 01-1.223-.081c-1.6-1.836-4.789-3.186-8.591-3.186-3.8 0-6.988 1.349-8.588 3.184L0 789.552z"/></svg><svg viewBox="10 14.024 20 11.411" id="icon-vk" xmlns="http://www.w3.org/2000/svg"><path d="M29.895 24.331a1.52 1.52 0 00-.068-.131c-.347-.626-1.011-1.393-1.988-2.302l-.021-.021-.01-.011-.01-.01h-.011c-.444-.424-.726-.709-.844-.855-.216-.277-.265-.559-.146-.843.084-.215.396-.67.938-1.364.285-.368.511-.663.676-.885 1.202-1.597 1.724-2.617 1.563-3.062l-.061-.104c-.043-.063-.15-.12-.324-.171-.174-.052-.396-.061-.666-.026l-2.999.021a.384.384 0 00-.209.006l-.135.031-.052.026-.041.032a.452.452 0 00-.115.109.704.704 0 00-.104.183c-.326.84-.697 1.621-1.113 2.343a22.88 22.88 0 01-.709 1.12 5.369 5.369 0 01-.542.697 3.735 3.735 0 01-.396.36c-.117.09-.208.128-.271.114a9.552 9.552 0 01-.177-.042c-.098-.062-.176-.147-.234-.255s-.098-.243-.12-.406a4.532 4.532 0 01-.03-.922c.007-.216.01-.361.01-.438 0-.263.006-.549.017-.858l.026-.734c.006-.181.01-.372.01-.573s-.015-.36-.039-.475a1.567 1.567 0 00-.11-.333.57.57 0 00-.214-.25 1.22 1.22 0 00-.348-.141c-.369-.083-.837-.128-1.406-.135-1.292-.013-2.121.07-2.489.25a1.41 1.41 0 00-.395.313c-.125.153-.143.236-.052.25.417.063.711.212.885.448l.063.125c.048.09.097.25.146.479s.08.482.093.76c.035.507.035.941 0 1.302-.035.361-.067.642-.099.843a1.693 1.693 0 01-.265.719.215.215 0 01-.052.053c-.09.034-.184.052-.281.052s-.215-.049-.354-.146a2.466 2.466 0 01-.432-.4c-.149-.17-.317-.408-.505-.713s-.382-.667-.583-1.083l-.167-.302a28.283 28.283 0 01-.427-.848 16.21 16.21 0 01-.479-1.079.681.681 0 00-.25-.333l-.052-.032a1.087 1.087 0 00-.406-.155l-2.854.021c-.292 0-.489.066-.594.198l-.041.063c-.022.03-.032.086-.032.162 0 .077.021.17.063.282.417.979.87 1.923 1.359 2.832.49.91.915 1.642 1.275 2.197.361.555.729 1.08 1.104 1.571.375.494.623.81.745.948s.217.243.286.313l.261.25c.166.167.411.367.734.6.323.232.681.46 1.073.687.392.226.849.409 1.369.552s1.027.2 1.521.172h1.197c.242-.021.427-.097.552-.229l.041-.052a.723.723 0 00.078-.193c.025-.087.036-.183.036-.286a3.599 3.599 0 01.067-.807c.053-.239.112-.42.179-.541.064-.122.141-.224.224-.308.082-.084.142-.134.177-.151s.063-.029.084-.037c.166-.055.362-.002.588.162.226.163.438.364.635.604.198.24.436.508.713.807.278.298.521.521.73.666l.207.125c.139.084.319.161.542.229.222.069.416.087.583.052l2.665-.041c.265 0 .47-.045.615-.131.146-.087.232-.182.261-.285a.821.821 0 00.004-.354 1.389 1.389 0 00-.073-.276z"/></svg><svg viewBox="-210 472 20 20" id="icon-vk-color"><path fill="#2787F5" d="M-203.067 472h6.133c5.6 0 6.934 1.333 6.934 6.934v6.133c0 5.6-1.334 6.934-6.934 6.934h-6.133c-5.6 0-6.933-1.334-6.933-6.934v-6.133c0-5.601 1.333-6.934 6.933-6.934z"/><path fill="#FFF" d="M-193.621 478.89c.092-.309 0-.536-.441-.536h-1.459c-.37 0-.541.196-.634.413 0 0-.741 1.808-1.792 2.982-.34.34-.494.448-.68.448-.094 0-.227-.108-.227-.417v-2.889c0-.371-.108-.536-.418-.536h-2.291c-.231 0-.371.172-.371.335 0 .352.525.433.58 1.421v2.147c0 .47-.085.556-.271.556-.495 0-1.697-1.815-2.41-3.894-.14-.404-.28-.567-.653-.567h-1.458c-.417 0-.5.196-.5.413 0 .386.495 2.302 2.302 4.836 1.205 1.73 2.903 2.669 4.448 2.669.927 0 1.042-.209 1.042-.568v-1.307c0-.418.088-.5.381-.5.217 0 .587.107 1.452.941.989.989 1.151 1.434 1.708 1.434h1.459c.416 0 .625-.209.504-.62-.131-.409-.604-1.005-1.23-1.709-.34-.401-.85-.835-1.004-1.051-.216-.278-.154-.401 0-.648 0 0 1.777-2.503 1.963-3.353z"/></svg><svg viewBox="-296 386 20 20" id="icon-vk-color2" xmlns="http://www.w3.org/2000/svg"><path fill="#2787F5" d="M-289.067 386h6.133c5.6 0 6.934 1.333 6.934 6.934v6.134c0 5.6-1.334 6.934-6.934 6.934h-6.133c-5.6 0-6.933-1.334-6.933-6.934v-6.134c0-5.601 1.333-6.934 6.933-6.934z"/><path fill="#FFF" d="M-279.621 392.89c.092-.309 0-.535-.441-.535h-1.459c-.369 0-.541.195-.633.412 0 0-.742 1.809-1.793 2.982-.34.34-.494.448-.68.448-.094 0-.227-.108-.227-.417v-2.89c0-.371-.107-.536-.418-.536h-2.292c-.231 0-.371.173-.371.336 0 .352.525.433.58 1.421v2.146c0 .47-.085.556-.271.556-.495 0-1.697-1.814-2.41-3.894-.14-.404-.28-.567-.653-.567h-1.458c-.417 0-.5.196-.5.413 0 .387.495 2.303 2.302 4.836 1.205 1.73 2.903 2.669 4.448 2.669.928 0 1.043-.209 1.043-.567v-1.308c0-.418.088-.5.381-.5.217 0 .586.106 1.451.941.99.989 1.152 1.434 1.709 1.434h1.459c.416 0 .625-.209.504-.619-.131-.409-.604-1.006-1.23-1.709-.34-.401-.85-.835-1.004-1.052-.215-.277-.154-.4 0-.647 0 0 1.777-2.503 1.963-3.353z"/></svg></svg>